<?xml version="1.0" encoding="UTF-8" standalone="no"?>
<svg xmlns="http://www.w3.org/2000/svg" viewBox="0 0 200 100">
  <!-- Airplane body -->
  <path d="M160,50 L120,40 L100,40 L90,30 L20,40 L15,45 L20,50 L90,60 L100,50 L120,50 Z" fill="#fff" />
  
  <!-- Wings -->
  <path d="M100,40 L80,20 L60,15 L50,20 L70,42 Z" fill="#ddd" />
  <path d="M100,50 L80,70 L60,75 L50,70 L70,48 Z" fill="#ddd" />
  
  <!-- Tail -->
  <path d="M160,50 L170,30 L180,30 L175,50 L180,70 L170,70 Z" fill="#ddd" />
  
  <!-- Windows -->
  <circle cx="30" cy="45" r="2" fill="#87CEEB" />
  <circle cx="40" cy="45" r="2" fill="#87CEEB" />
  <circle cx="50" cy="45" r="2" fill="#87CEEB" />
  <circle cx="60" cy="45" r="2" fill="#87CEEB" />
  <circle cx="70" cy="45" r="2" fill="#87CEEB" />
  <circle cx="80" cy="45" r="2" fill="#87CEEB" />
  
  <!-- Engines -->
  <ellipse cx="70" cy="30" rx="8" ry="4" fill="#555" />
  <ellipse cx="70" cy="60" rx="8" ry="4" fill="#555" />
</svg>
